<svg height="512pt" preserveAspectRatio="xMidYMid meet" viewBox="0 0 512 512" width="512pt" xmlns="http://www.w3.org/2000/svg"><g transform="matrix(.1 0 0 -.1 0 512)"><path d="m0 2858c1-1937-2-1850 56-2000 30-79 79-155 138-214 42-42 152-114 174-114 7 0 20-4 30-10 9-5 49-16 87-24 61-13 332-15 2125-16 2252 0 2109-4 2224 58 136 72 223 198 273 397 4 17 9 713 10 1548l4 1517h-321-320v320 320h-2240-2240zm4161-155c0-890 3-1636 5-1658 10-88 45-177 87-223l21-22-1865 2-1864 3-55 28c-67 35-100 69-137 144l-28 58-3 1643-2 1642h1920 1920z"/><path d="m640 3520v-160h1600 1600v160 160h-1600-1600z"/><path d="m640 2240v-800h720 720v800 800h-720-720z"/><path d="m2400 2880v-160h720 720v160 160h-720-720z"/><path d="m2400 2240v-160h720 720v160 160h-720-720z"/><path d="m2400 1600v-160h560 560v160 160h-560-560z"/></g></svg>